<svg width="30" height="10" viewBox="0 0 30 10" fill="none" xmlns="http://www.w3.org/2000/svg">
<path d="M5 0L6.12257 3.45492H9.75528L6.81636 5.59017L7.93893 9.04508L5 6.90983L2.06107 9.04508L3.18364 5.59017L0.244718 3.45492H3.87743L5 0Z" fill="#706FD3"/>
<path d="M15 0L16.1226 3.45492H19.7553L16.8164 5.59017L17.9389 9.04508L15 6.90983L12.0611 9.04508L13.1836 5.59017L10.2447 3.45492H13.8774L15 0Z" fill="#706FD3"/>
<path d="M25 0L26.1226 3.45492H29.7553L26.8164 5.59017L27.9389 9.04508L25 6.90983L22.0611 9.04508L23.1836 5.59017L20.2447 3.45492H23.8774L25 0Z" fill="#706FD3"/>
</svg>
