<svg width="1044" height="827" viewBox="0 0 1044 827" fill="none" xmlns="http://www.w3.org/2000/svg">
<path d="M51.1875 66.1875V67.1875H52.1875V66.1875H51.1875ZM51.1875 0H50.1875V66.1875H51.1875H52.1875V0H51.1875ZM51.1875 66.1875V65.1875H-15V66.1875V67.1875H51.1875V66.1875Z" fill="white" fill-opacity="0.2"/>
<path d="M117.375 66.1875V67.1875H118.375V66.1875H117.375ZM51.1875 66.1875H50.1875V67.1875H51.1875V66.1875ZM117.375 0H116.375V66.1875H117.375H118.375V0H117.375ZM117.375 66.1875V65.1875H51.1875V66.1875V67.1875H117.375V66.1875ZM51.1875 66.1875H52.1875V0H51.1875H50.1875V66.1875H51.1875Z" fill="white" fill-opacity="0.2"/>
<path d="M51.1875 66.1875H52.1875V65.1875H51.1875V66.1875ZM51.1875 132.375V133.375H52.1875V132.375H51.1875ZM-15 66.1875V67.1875H51.1875V66.1875V65.1875H-15V66.1875ZM51.1875 66.1875H50.1875V132.375H51.1875H52.1875V66.1875H51.1875ZM51.1875 132.375V131.375H-15V132.375V133.375H51.1875V132.375Z" fill="white" fill-opacity="0.2"/>
<rect x="51.1875" y="66.1875" width="66.1875" height="66.1875" stroke="white" stroke-opacity="0.2" stroke-width="2"/>
<path d="M183.562 66.1875V67.1875H184.562V66.1875H183.562ZM117.375 66.1875H116.375V67.1875H117.375V66.1875ZM183.562 0H182.562V66.1875H183.562H184.562V0H183.562ZM183.562 66.1875V65.1875H117.375V66.1875V67.1875H183.562V66.1875ZM117.375 66.1875H118.375V0H117.375H116.375V66.1875H117.375Z" fill="white" fill-opacity="0.2"/>
<path d="M249.75 66.1875V67.1875H250.75V66.1875H249.75ZM183.562 66.1875H182.562V67.1875H183.562V66.1875ZM249.75 0H248.75V66.1875H249.75H250.75V0H249.75ZM249.75 66.1875V65.1875H183.562V66.1875V67.1875H249.75V66.1875ZM183.562 66.1875H184.562V0H183.562H182.562V66.1875H183.562Z" fill="white" fill-opacity="0.2"/>
<rect x="117.375" y="66.1875" width="66.1875" height="66.1875" stroke="white" stroke-opacity="0.2" stroke-width="2"/>
<rect x="183.562" y="66.1875" width="66.1875" height="66.1875" stroke="white" stroke-opacity="0.2" stroke-width="2"/>
<path d="M51.1875 132.375H52.1875V131.375H51.1875V132.375ZM51.1875 198.562V199.562H52.1875V198.562H51.1875ZM-15 132.375V133.375H51.1875V132.375V131.375H-15V132.375ZM51.1875 132.375H50.1875V198.562H51.1875H52.1875V132.375H51.1875ZM51.1875 198.562V197.562H-15V198.562V199.562H51.1875V198.562Z" fill="white" fill-opacity="0.2"/>
<rect x="51.1875" y="132.375" width="66.1875" height="66.1875" stroke="white" stroke-opacity="0.2" stroke-width="2"/>
<path d="M51.1875 198.562H52.1875V197.562H51.1875V198.562ZM51.1875 264.75V265.75H52.1875V264.75H51.1875ZM-15 198.562V199.562H51.1875V198.562V197.562H-15V198.562ZM51.1875 198.562H50.1875V264.75H51.1875H52.1875V198.562H51.1875ZM51.1875 264.75V263.75H-15V264.75V265.75H51.1875V264.75Z" fill="white" fill-opacity="0.2"/>
<rect x="51.1875" y="198.562" width="66.1875" height="66.1875" stroke="white" stroke-opacity="0.2" stroke-width="2"/>
<rect x="117.375" y="132.375" width="66.1875" height="66.1875" stroke="white" stroke-opacity="0.2" stroke-width="2"/>
<rect x="183.562" y="132.375" width="66.1875" height="66.1875" stroke="white" stroke-opacity="0.2" stroke-width="2"/>
<rect x="117.375" y="198.562" width="66.1875" height="66.1875" stroke="white" stroke-opacity="0.2" stroke-width="2"/>
<rect x="183.562" y="198.562" width="66.1875" height="66.1875" stroke="white" stroke-opacity="0.2" stroke-width="2"/>
<path d="M315.938 66.1875V67.1875H316.938V66.1875H315.938ZM249.75 66.1875H248.75V67.1875H249.75V66.1875ZM315.938 0H314.938V66.1875H315.938H316.938V0H315.938ZM315.938 66.1875V65.1875H249.75V66.1875V67.1875H315.938V66.1875ZM249.75 66.1875H250.75V0H249.75H248.75V66.1875H249.75Z" fill="white" fill-opacity="0.2"/>
<path d="M382.125 66.1875V67.1875H383.125V66.1875H382.125ZM315.938 66.1875H314.938V67.1875H315.938V66.1875ZM382.125 0H381.125V66.1875H382.125H383.125V0H382.125ZM382.125 66.1875V65.1875H315.938V66.1875V67.1875H382.125V66.1875ZM315.938 66.1875H316.938V0H315.938H314.938V66.1875H315.938Z" fill="white" fill-opacity="0.2"/>
<rect x="249.75" y="66.1875" width="66.1875" height="66.1875" stroke="white" stroke-opacity="0.2" stroke-width="2"/>
<rect x="315.938" y="66.1875" width="66.1875" height="66.1875" stroke="white" stroke-opacity="0.2" stroke-width="2"/>
<path d="M448.312 66.1875V67.1875H449.312V66.1875H448.312ZM382.125 66.1875H381.125V67.1875H382.125V66.1875ZM448.312 0H447.312V66.1875H448.312H449.312V0H448.312ZM448.312 66.1875V65.1875H382.125V66.1875V67.1875H448.312V66.1875ZM382.125 66.1875H383.125V0H382.125H381.125V66.1875H382.125Z" fill="white" fill-opacity="0.2"/>
<path d="M514.5 66.1875V67.1875H515.5V66.1875H514.5ZM448.312 66.1875H447.312V67.1875H448.312V66.1875ZM514.5 0H513.5V66.1875H514.5H515.5V0H514.5ZM514.5 66.1875V65.1875H448.312V66.1875V67.1875H514.5V66.1875ZM448.312 66.1875H449.312V0H448.312H447.312V66.1875H448.312Z" fill="white" fill-opacity="0.2"/>
<rect x="382.125" y="66.1875" width="66.1875" height="66.1875" stroke="white" stroke-opacity="0.2" stroke-width="2"/>
<rect x="448.312" y="66.1875" width="66.1875" height="66.1875" stroke="white" stroke-opacity="0.2" stroke-width="2"/>
<rect x="249.75" y="132.375" width="66.1875" height="66.1875" stroke="white" stroke-opacity="0.2" stroke-width="2"/>
<rect x="315.938" y="132.375" width="66.1875" height="66.1875" stroke="white" stroke-opacity="0.2" stroke-width="2"/>
<rect x="249.75" y="198.562" width="66.1875" height="66.1875" stroke="white" stroke-opacity="0.2" stroke-width="2"/>
<rect x="315.938" y="198.562" width="66.1875" height="66.1875" stroke="white" stroke-opacity="0.2" stroke-width="2"/>
<rect x="382.125" y="132.375" width="66.1875" height="66.1875" stroke="white" stroke-opacity="0.2" stroke-width="2"/>
<rect x="448.312" y="132.375" width="66.1875" height="66.1875" stroke="white" stroke-opacity="0.2" stroke-width="2"/>
<rect x="382.125" y="198.562" width="66.1875" height="66.1875" stroke="white" stroke-opacity="0.2" stroke-width="2"/>
<rect x="448.312" y="198.562" width="66.1875" height="66.1875" stroke="white" stroke-opacity="0.2" stroke-width="2"/>
<path d="M51.1875 264.75H52.1875V263.75H51.1875V264.75ZM51.1875 330.938V331.938H52.1875V330.938H51.1875ZM-15 264.75V265.75H51.1875V264.75V263.75H-15V264.75ZM51.1875 264.75H50.1875V330.938H51.1875H52.1875V264.75H51.1875ZM51.1875 330.938V329.938H-15V330.938V331.938H51.1875V330.938Z" fill="white" fill-opacity="0.2"/>
<rect x="51.1875" y="264.75" width="66.1875" height="66.1875" stroke="white" stroke-opacity="0.2" stroke-width="2"/>
<path d="M51.1875 330.938H52.1875V329.938H51.1875V330.938ZM51.1875 397.125V398.125H52.1875V397.125H51.1875ZM-15 330.938V331.938H51.1875V330.938V329.938H-15V330.938ZM51.1875 330.938H50.1875V397.125H51.1875H52.1875V330.938H51.1875ZM51.1875 397.125V396.125H-15V397.125V398.125H51.1875V397.125Z" fill="white" fill-opacity="0.2"/>
<rect x="51.1875" y="330.938" width="66.1875" height="66.1875" stroke="white" stroke-opacity="0.2" stroke-width="2"/>
<rect x="117.375" y="264.75" width="66.1875" height="66.1875" stroke="white" stroke-opacity="0.2" stroke-width="2"/>
<rect x="183.562" y="264.75" width="66.1875" height="66.1875" stroke="white" stroke-opacity="0.2" stroke-width="2"/>
<rect x="117.375" y="330.938" width="66.1875" height="66.1875" stroke="white" stroke-opacity="0.2" stroke-width="2"/>
<rect x="183.562" y="330.938" width="66.1875" height="66.1875" stroke="white" stroke-opacity="0.2" stroke-width="2"/>
<path d="M51.1875 397.125H52.1875V396.125H51.1875V397.125ZM51.1875 463.312V464.312H52.1875V463.312H51.1875ZM-15 397.125V398.125H51.1875V397.125V396.125H-15V397.125ZM51.1875 397.125H50.1875V463.312H51.1875H52.1875V397.125H51.1875ZM51.1875 463.312V462.312H-15V463.312V464.312H51.1875V463.312Z" fill="white" fill-opacity="0.2"/>
<rect x="51.1875" y="397.125" width="66.1875" height="66.1875" stroke="white" stroke-opacity="0.2" stroke-width="2"/>
<path d="M51.1875 463.312H52.1875V462.312H51.1875V463.312ZM51.1875 529.5V530.5H52.1875V529.5H51.1875ZM-15 463.312V464.312H51.1875V463.312V462.312H-15V463.312ZM51.1875 463.312H50.1875V529.5H51.1875H52.1875V463.312H51.1875ZM51.1875 529.5V528.5H-15V529.5V530.5H51.1875V529.5Z" fill="white" fill-opacity="0.2"/>
<rect x="51.1875" y="463.312" width="66.1875" height="66.1875" stroke="white" stroke-opacity="0.2" stroke-width="2"/>
<rect x="117.375" y="397.125" width="66.1875" height="66.1875" stroke="white" stroke-opacity="0.2" stroke-width="2"/>
<rect x="183.562" y="397.125" width="66.1875" height="66.1875" stroke="white" stroke-opacity="0.2" stroke-width="2"/>
<rect x="117.375" y="463.312" width="66.1875" height="66.1875" stroke="white" stroke-opacity="0.2" stroke-width="2"/>
<rect x="183.562" y="463.312" width="66.1875" height="66.1875" stroke="white" stroke-opacity="0.2" stroke-width="2"/>
<rect x="249.75" y="264.75" width="66.1875" height="66.1875" stroke="white" stroke-opacity="0.2" stroke-width="2"/>
<rect x="315.938" y="264.75" width="66.1875" height="66.1875" stroke="white" stroke-opacity="0.2" stroke-width="2"/>
<rect x="249.75" y="330.938" width="66.1875" height="66.1875" stroke="white" stroke-opacity="0.2" stroke-width="2"/>
<rect x="315.938" y="330.938" width="66.1875" height="66.1875" stroke="white" stroke-opacity="0.2" stroke-width="2"/>
<rect x="382.125" y="264.75" width="66.1875" height="66.1875" stroke="white" stroke-opacity="0.2" stroke-width="2"/>
<rect x="448.312" y="264.75" width="66.1875" height="66.1875" stroke="white" stroke-opacity="0.2" stroke-width="2"/>
<rect x="382.125" y="330.938" width="66.1875" height="66.1875" stroke="white" stroke-opacity="0.2" stroke-width="2"/>
<rect x="448.312" y="330.938" width="66.1875" height="66.1875" stroke="white" stroke-opacity="0.2" stroke-width="2"/>
<rect x="249.75" y="397.125" width="66.1875" height="66.1875" stroke="white" stroke-opacity="0.2" stroke-width="2"/>
<rect x="315.938" y="397.125" width="66.1875" height="66.1875" stroke="white" stroke-opacity="0.2" stroke-width="2"/>
<rect x="249.75" y="463.312" width="66.1875" height="66.1875" stroke="white" stroke-opacity="0.2" stroke-width="2"/>
<rect x="315.938" y="463.312" width="66.1875" height="66.1875" stroke="white" stroke-opacity="0.2" stroke-width="2"/>
<rect x="382.125" y="397.125" width="66.1875" height="66.1875" stroke="white" stroke-opacity="0.2" stroke-width="2"/>
<rect x="448.312" y="397.125" width="66.1875" height="66.1875" stroke="white" stroke-opacity="0.2" stroke-width="2"/>
<rect x="382.125" y="463.312" width="66.1875" height="66.1875" stroke="white" stroke-opacity="0.2" stroke-width="2"/>
<rect x="448.312" y="463.312" width="66.1875" height="66.1875" stroke="white" stroke-opacity="0.2" stroke-width="2"/>
<path d="M580.688 66.1875V67.1875H581.688V66.1875H580.688ZM514.5 66.1875H513.5V67.1875H514.5V66.1875ZM580.688 0H579.688V66.1875H580.688H581.688V0H580.688ZM580.688 66.1875V65.1875H514.5V66.1875V67.1875H580.688V66.1875ZM514.5 66.1875H515.5V0H514.5H513.5V66.1875H514.5Z" fill="white" fill-opacity="0.2"/>
<path d="M646.875 66.1875V67.1875H647.875V66.1875H646.875ZM580.688 66.1875H579.688V67.1875H580.688V66.1875ZM646.875 0H645.875V66.1875H646.875H647.875V0H646.875ZM646.875 66.1875V65.1875H580.688V66.1875V67.1875H646.875V66.1875ZM580.688 66.1875H581.688V0H580.688H579.688V66.1875H580.688Z" fill="white" fill-opacity="0.2"/>
<rect x="514.5" y="66.1875" width="66.1875" height="66.1875" stroke="white" stroke-opacity="0.2" stroke-width="2"/>
<rect x="580.688" y="66.1875" width="66.1875" height="66.1875" stroke="white" stroke-opacity="0.2" stroke-width="2"/>
<path d="M713.062 66.1875V67.1875H714.062V66.1875H713.062ZM646.875 66.1875H645.875V67.1875H646.875V66.1875ZM713.062 0H712.062V66.1875H713.062H714.062V0H713.062ZM713.062 66.1875V65.1875H646.875V66.1875V67.1875H713.062V66.1875ZM646.875 66.1875H647.875V0H646.875H645.875V66.1875H646.875Z" fill="white" fill-opacity="0.2"/>
<path d="M779.25 66.1875V67.1875H780.25V66.1875H779.25ZM713.062 66.1875H712.062V67.1875H713.062V66.1875ZM779.25 0H778.25V66.1875H779.25H780.25V0H779.25ZM779.25 66.1875V65.1875H713.062V66.1875V67.1875H779.25V66.1875ZM713.062 66.1875H714.062V0H713.062H712.062V66.1875H713.062Z" fill="white" fill-opacity="0.2"/>
<rect x="646.875" y="66.1875" width="66.1875" height="66.1875" stroke="white" stroke-opacity="0.2" stroke-width="2"/>
<rect x="713.062" y="66.1875" width="66.1875" height="66.1875" stroke="white" stroke-opacity="0.2" stroke-width="2"/>
<rect x="514.5" y="132.375" width="66.1875" height="66.1875" stroke="white" stroke-opacity="0.2" stroke-width="2"/>
<rect x="580.688" y="132.375" width="66.1875" height="66.1875" stroke="white" stroke-opacity="0.2" stroke-width="2"/>
<rect x="514.5" y="198.562" width="66.1875" height="66.1875" stroke="white" stroke-opacity="0.2" stroke-width="2"/>
<rect x="580.688" y="198.562" width="66.1875" height="66.1875" stroke="white" stroke-opacity="0.2" stroke-width="2"/>
<rect x="646.875" y="132.375" width="66.1875" height="66.1875" stroke="white" stroke-opacity="0.2" stroke-width="2"/>
<rect x="713.062" y="132.375" width="66.1875" height="66.1875" stroke="white" stroke-opacity="0.2" stroke-width="2"/>
<rect x="646.875" y="198.562" width="66.1875" height="66.1875" stroke="white" stroke-opacity="0.2" stroke-width="2"/>
<rect x="713.062" y="198.562" width="66.1875" height="66.1875" stroke="white" stroke-opacity="0.2" stroke-width="2"/>
<path d="M845.438 66.1875V67.1875H846.438V66.1875H845.438ZM779.25 66.1875H778.25V67.1875H779.25V66.1875ZM845.438 0H844.438V66.1875H845.438H846.438V0H845.438ZM845.438 66.1875V65.1875H779.25V66.1875V67.1875H845.438V66.1875ZM779.25 66.1875H780.25V0H779.25H778.25V66.1875H779.25Z" fill="white" fill-opacity="0.2"/>
<path d="M911.625 66.1875V67.1875H912.625V66.1875H911.625ZM845.438 66.1875H844.438V67.1875H845.438V66.1875ZM911.625 0H910.625V66.1875H911.625H912.625V0H911.625ZM911.625 66.1875V65.1875H845.438V66.1875V67.1875H911.625V66.1875ZM845.438 66.1875H846.438V0H845.438H844.438V66.1875H845.438Z" fill="white" fill-opacity="0.2"/>
<rect x="779.25" y="66.1875" width="66.1875" height="66.1875" stroke="white" stroke-opacity="0.2" stroke-width="2"/>
<rect x="845.438" y="66.1875" width="66.1875" height="66.1875" stroke="white" stroke-opacity="0.2" stroke-width="2"/>
<path d="M977.812 66.1875V67.1875H978.812V66.1875H977.812ZM911.625 66.1875H910.625V67.1875H911.625V66.1875ZM977.812 0H976.812V66.1875H977.812H978.812V0H977.812ZM977.812 66.1875V65.1875H911.625V66.1875V67.1875H977.812V66.1875ZM911.625 66.1875H912.625V0H911.625H910.625V66.1875H911.625Z" fill="white" fill-opacity="0.2"/>
<path d="M977.812 66.1875H976.812V67.1875H977.812V66.1875ZM1044 66.1875V65.1875H977.812V66.1875V67.1875H1044V66.1875ZM977.812 66.1875H978.812V0H977.812H976.812V66.1875H977.812Z" fill="white" fill-opacity="0.2"/>
<rect x="911.625" y="66.1875" width="66.1875" height="66.1875" stroke="white" stroke-opacity="0.2" stroke-width="2"/>
<path d="M977.812 66.1875V65.1875H976.812V66.1875H977.812ZM977.812 132.375H976.812V133.375H977.812V132.375ZM977.812 66.1875V67.1875H1044V66.1875V65.1875H977.812V66.1875ZM1044 132.375V131.375H977.812V132.375V133.375H1044V132.375ZM977.812 132.375H978.812V66.1875H977.812H976.812V132.375H977.812Z" fill="white" fill-opacity="0.2"/>
<rect x="779.25" y="132.375" width="66.1875" height="66.1875" stroke="white" stroke-opacity="0.2" stroke-width="2"/>
<rect x="845.438" y="132.375" width="66.1875" height="66.1875" stroke="white" stroke-opacity="0.2" stroke-width="2"/>
<rect x="779.25" y="198.562" width="66.1875" height="66.1875" stroke="white" stroke-opacity="0.2" stroke-width="2"/>
<rect x="845.438" y="198.562" width="66.1875" height="66.1875" stroke="white" stroke-opacity="0.2" stroke-width="2"/>
<rect x="911.625" y="132.375" width="66.1875" height="66.1875" stroke="white" stroke-opacity="0.2" stroke-width="2"/>
<path d="M977.812 132.375V131.375H976.812V132.375H977.812ZM977.812 198.562H976.812V199.562H977.812V198.562ZM977.812 132.375V133.375H1044V132.375V131.375H977.812V132.375ZM1044 198.562V197.562H977.812V198.562V199.562H1044V198.562ZM977.812 198.562H978.812V132.375H977.812H976.812V198.562H977.812Z" fill="white" fill-opacity="0.2"/>
<rect x="911.625" y="198.562" width="66.1875" height="66.1875" stroke="white" stroke-opacity="0.2" stroke-width="2"/>
<path d="M977.812 198.562V197.562H976.812V198.562H977.812ZM977.812 264.75H976.812V265.75H977.812V264.75ZM977.812 198.562V199.562H1044V198.562V197.562H977.812V198.562ZM1044 264.75V263.75H977.812V264.75V265.75H1044V264.75ZM977.812 264.75H978.812V198.562H977.812H976.812V264.75H977.812Z" fill="white" fill-opacity="0.2"/>
<rect x="514.5" y="264.75" width="66.1875" height="66.1875" stroke="white" stroke-opacity="0.2" stroke-width="2"/>
<rect x="580.688" y="264.75" width="66.1875" height="66.1875" stroke="white" stroke-opacity="0.2" stroke-width="2"/>
<rect x="514.5" y="330.938" width="66.1875" height="66.1875" stroke="white" stroke-opacity="0.2" stroke-width="2"/>
<rect x="580.688" y="330.938" width="66.1875" height="66.1875" stroke="white" stroke-opacity="0.2" stroke-width="2"/>
<rect x="646.875" y="264.75" width="66.1875" height="66.1875" stroke="white" stroke-opacity="0.2" stroke-width="2"/>
<rect x="713.062" y="264.75" width="66.1875" height="66.1875" stroke="white" stroke-opacity="0.2" stroke-width="2"/>
<rect x="646.875" y="330.938" width="66.1875" height="66.1875" stroke="white" stroke-opacity="0.2" stroke-width="2"/>
<rect x="713.062" y="330.938" width="66.1875" height="66.1875" stroke="white" stroke-opacity="0.2" stroke-width="2"/>
<rect x="514.5" y="397.125" width="66.1875" height="66.1875" stroke="white" stroke-opacity="0.2" stroke-width="2"/>
<rect x="580.688" y="397.125" width="66.1875" height="66.1875" stroke="white" stroke-opacity="0.2" stroke-width="2"/>
<rect x="514.5" y="463.312" width="66.1875" height="66.1875" stroke="white" stroke-opacity="0.2" stroke-width="2"/>
<rect x="580.688" y="463.312" width="66.1875" height="66.1875" stroke="white" stroke-opacity="0.2" stroke-width="2"/>
<rect x="646.875" y="397.125" width="66.1875" height="66.1875" stroke="white" stroke-opacity="0.2" stroke-width="2"/>
<rect x="713.062" y="397.125" width="66.1875" height="66.1875" stroke="white" stroke-opacity="0.2" stroke-width="2"/>
<rect x="646.875" y="463.312" width="66.1875" height="66.1875" stroke="white" stroke-opacity="0.2" stroke-width="2"/>
<rect x="713.062" y="463.312" width="66.1875" height="66.1875" stroke="white" stroke-opacity="0.2" stroke-width="2"/>
<rect x="779.25" y="264.75" width="66.1875" height="66.1875" stroke="white" stroke-opacity="0.2" stroke-width="2"/>
<rect x="845.438" y="264.75" width="66.1875" height="66.1875" stroke="white" stroke-opacity="0.2" stroke-width="2"/>
<rect x="779.25" y="330.938" width="66.1875" height="66.1875" stroke="white" stroke-opacity="0.2" stroke-width="2"/>
<rect x="845.438" y="330.938" width="66.1875" height="66.1875" stroke="white" stroke-opacity="0.2" stroke-width="2"/>
<rect x="911.625" y="264.75" width="66.1875" height="66.1875" stroke="white" stroke-opacity="0.2" stroke-width="2"/>
<path d="M977.812 264.75V263.75H976.812V264.75H977.812ZM977.812 330.938H976.812V331.938H977.812V330.938ZM977.812 264.75V265.75H1044V264.75V263.75H977.812V264.75ZM1044 330.938V329.938H977.812V330.938V331.938H1044V330.938ZM977.812 330.938H978.812V264.75H977.812H976.812V330.938H977.812Z" fill="white" fill-opacity="0.2"/>
<rect x="911.625" y="330.938" width="66.1875" height="66.1875" stroke="white" stroke-opacity="0.2" stroke-width="2"/>
<path d="M977.812 330.938V329.938H976.812V330.938H977.812ZM977.812 397.125H976.812V398.125H977.812V397.125ZM977.812 330.938V331.938H1044V330.938V329.938H977.812V330.938ZM1044 397.125V396.125H977.812V397.125V398.125H1044V397.125ZM977.812 397.125H978.812V330.938H977.812H976.812V397.125H977.812Z" fill="white" fill-opacity="0.2"/>
<rect x="779.25" y="397.125" width="66.1875" height="66.1875" stroke="white" stroke-opacity="0.2" stroke-width="2"/>
<rect x="845.438" y="397.125" width="66.1875" height="66.1875" stroke="white" stroke-opacity="0.2" stroke-width="2"/>
<rect x="779.25" y="463.312" width="66.1875" height="66.1875" stroke="white" stroke-opacity="0.2" stroke-width="2"/>
<rect x="845.438" y="463.312" width="66.1875" height="66.1875" stroke="white" stroke-opacity="0.2" stroke-width="2"/>
<rect x="911.625" y="397.125" width="66.1875" height="66.1875" stroke="white" stroke-opacity="0.2" stroke-width="2"/>
<path d="M977.812 397.125V396.125H976.812V397.125H977.812ZM977.812 463.312H976.812V464.312H977.812V463.312ZM977.812 397.125V398.125H1044V397.125V396.125H977.812V397.125ZM1044 463.312V462.312H977.812V463.312V464.312H1044V463.312ZM977.812 463.312H978.812V397.125H977.812H976.812V463.312H977.812Z" fill="white" fill-opacity="0.2"/>
<rect x="911.625" y="463.312" width="66.1875" height="66.1875" stroke="white" stroke-opacity="0.2" stroke-width="2"/>
<path d="M977.812 463.312V462.312H976.812V463.312H977.812ZM977.812 529.5H976.812V530.5H977.812V529.5ZM977.812 463.312V464.312H1044V463.312V462.312H977.812V463.312ZM1044 529.5V528.5H977.812V529.5V530.5H1044V529.5ZM977.812 529.5H978.812V463.312H977.812H976.812V529.5H977.812Z" fill="white" fill-opacity="0.2"/>
<path d="M51.1875 529.5H52.1875V528.5H51.1875V529.5ZM51.1875 595.688V596.688H52.1875V595.688H51.1875ZM-15 529.5V530.5H51.1875V529.5V528.5H-15V529.5ZM51.1875 529.5H50.1875V595.688H51.1875H52.1875V529.5H51.1875ZM51.1875 595.688V594.688H-15V595.688V596.688H51.1875V595.688Z" fill="white" fill-opacity="0.2"/>
<rect x="51.1875" y="529.5" width="66.1875" height="66.1875" stroke="white" stroke-opacity="0.2" stroke-width="2"/>
<path d="M51.1875 595.688H52.1875V594.688H51.1875V595.688ZM51.1875 661.875V662.875H52.1875V661.875H51.1875ZM-15 595.688V596.688H51.1875V595.688V594.688H-15V595.688ZM51.1875 595.688H50.1875V661.875H51.1875H52.1875V595.688H51.1875ZM51.1875 661.875V660.875H-15V661.875V662.875H51.1875V661.875Z" fill="white" fill-opacity="0.2"/>
<rect x="51.1875" y="595.688" width="66.1875" height="66.1875" stroke="white" stroke-opacity="0.2" stroke-width="2"/>
<rect x="117.375" y="529.5" width="66.1875" height="66.1875" stroke="white" stroke-opacity="0.2" stroke-width="2"/>
<rect x="183.562" y="529.5" width="66.1875" height="66.1875" stroke="white" stroke-opacity="0.2" stroke-width="2"/>
<rect x="117.375" y="595.688" width="66.1875" height="66.1875" stroke="white" stroke-opacity="0.2" stroke-width="2"/>
<rect x="183.562" y="595.688" width="66.1875" height="66.1875" stroke="white" stroke-opacity="0.2" stroke-width="2"/>
<path d="M51.1875 661.875H52.1875V660.875H51.1875V661.875ZM51.1875 728.062V729.062H52.1875V728.062H51.1875ZM-15 661.875V662.875H51.1875V661.875V660.875H-15V661.875ZM51.1875 661.875H50.1875V728.062H51.1875H52.1875V661.875H51.1875ZM51.1875 728.062V727.062H-15V728.062V729.062H51.1875V728.062Z" fill="white" fill-opacity="0.2"/>
<rect x="51.1875" y="661.875" width="66.1875" height="66.1875" stroke="white" stroke-opacity="0.2" stroke-width="2"/>
<path d="M51.1875 728.062H52.1875V727.062H51.1875V728.062ZM51.1875 794.25V795.25H52.1875V794.25H51.1875ZM-15 728.062V729.062H51.1875V728.062V727.062H-15V728.062ZM51.1875 728.062H50.1875V794.25H51.1875H52.1875V728.062H51.1875ZM51.1875 794.25V793.25H-15V794.25V795.25H51.1875V794.25Z" fill="white" fill-opacity="0.2"/>
<rect x="51.1875" y="728.062" width="66.1875" height="66.1875" stroke="white" stroke-opacity="0.2" stroke-width="2"/>
<rect x="117.375" y="661.875" width="66.1875" height="66.1875" stroke="white" stroke-opacity="0.2" stroke-width="2"/>
<rect x="183.562" y="661.875" width="66.1875" height="66.1875" stroke="white" stroke-opacity="0.2" stroke-width="2"/>
<rect x="117.375" y="728.062" width="66.1875" height="66.1875" stroke="white" stroke-opacity="0.2" stroke-width="2"/>
<rect x="183.562" y="728.062" width="66.1875" height="66.1875" stroke="white" stroke-opacity="0.2" stroke-width="2"/>
<rect x="249.75" y="529.5" width="66.1875" height="66.1875" stroke="white" stroke-opacity="0.2" stroke-width="2"/>
<rect x="315.938" y="529.5" width="66.1875" height="66.1875" stroke="white" stroke-opacity="0.2" stroke-width="2"/>
<rect x="249.75" y="595.688" width="66.1875" height="66.1875" stroke="white" stroke-opacity="0.2" stroke-width="2"/>
<rect x="315.938" y="595.688" width="66.1875" height="66.1875" stroke="white" stroke-opacity="0.2" stroke-width="2"/>
<rect x="382.125" y="529.5" width="66.1875" height="66.1875" stroke="white" stroke-opacity="0.2" stroke-width="2"/>
<rect x="448.312" y="529.5" width="66.1875" height="66.1875" stroke="white" stroke-opacity="0.2" stroke-width="2"/>
<rect x="382.125" y="595.688" width="66.1875" height="66.1875" stroke="white" stroke-opacity="0.2" stroke-width="2"/>
<rect x="448.312" y="595.688" width="66.1875" height="66.1875" stroke="white" stroke-opacity="0.2" stroke-width="2"/>
<rect x="249.75" y="661.875" width="66.1875" height="66.1875" stroke="white" stroke-opacity="0.2" stroke-width="2"/>
<rect x="315.938" y="661.875" width="66.1875" height="66.1875" stroke="white" stroke-opacity="0.2" stroke-width="2"/>
<rect x="249.75" y="728.062" width="66.1875" height="66.1875" stroke="white" stroke-opacity="0.2" stroke-width="2"/>
<rect x="315.938" y="728.062" width="66.1875" height="66.1875" stroke="white" stroke-opacity="0.2" stroke-width="2"/>
<rect x="382.125" y="661.875" width="66.1875" height="66.1875" stroke="white" stroke-opacity="0.2" stroke-width="2"/>
<rect x="448.312" y="661.875" width="66.1875" height="66.1875" stroke="white" stroke-opacity="0.2" stroke-width="2"/>
<rect x="382.125" y="728.062" width="66.1875" height="66.1875" stroke="white" stroke-opacity="0.2" stroke-width="2"/>
<rect x="448.312" y="728.062" width="66.1875" height="66.1875" stroke="white" stroke-opacity="0.2" stroke-width="2"/>
<path d="M51.1875 794.25H52.1875V793.25H51.1875V794.25ZM51.1875 860.438V861.438H52.1875V860.438H51.1875ZM-15 794.25V795.25H51.1875V794.25V793.25H-15V794.25ZM51.1875 794.25H50.1875V860.438H51.1875H52.1875V794.25H51.1875ZM51.1875 860.438V859.438H-15V860.438V861.438H51.1875V860.438Z" fill="white" fill-opacity="0.2"/>
<rect x="51.1875" y="794.25" width="66.1875" height="66.1875" stroke="white" stroke-opacity="0.2" stroke-width="2"/>
<rect x="117.375" y="794.25" width="66.1875" height="66.1875" stroke="white" stroke-opacity="0.2" stroke-width="2"/>
<rect x="183.562" y="794.25" width="66.1875" height="66.1875" stroke="white" stroke-opacity="0.2" stroke-width="2"/>
<rect x="249.75" y="794.25" width="66.1875" height="66.1875" stroke="white" stroke-opacity="0.2" stroke-width="2"/>
<rect x="315.938" y="794.25" width="66.1875" height="66.1875" stroke="white" stroke-opacity="0.2" stroke-width="2"/>
<rect x="382.125" y="794.25" width="66.1875" height="66.1875" stroke="white" stroke-opacity="0.2" stroke-width="2"/>
<rect x="448.312" y="794.25" width="66.1875" height="66.1875" stroke="white" stroke-opacity="0.2" stroke-width="2"/>
<rect x="514.5" y="529.5" width="66.1875" height="66.1875" stroke="white" stroke-opacity="0.2" stroke-width="2"/>
<rect x="580.688" y="529.5" width="66.1875" height="66.1875" stroke="white" stroke-opacity="0.2" stroke-width="2"/>
<rect x="514.5" y="595.688" width="66.1875" height="66.1875" stroke="white" stroke-opacity="0.2" stroke-width="2"/>
<rect x="580.688" y="595.688" width="66.1875" height="66.1875" stroke="white" stroke-opacity="0.2" stroke-width="2"/>
<rect x="646.875" y="529.5" width="66.1875" height="66.1875" stroke="white" stroke-opacity="0.2" stroke-width="2"/>
<rect x="713.062" y="529.5" width="66.1875" height="66.1875" stroke="white" stroke-opacity="0.2" stroke-width="2"/>
<rect x="646.875" y="595.688" width="66.1875" height="66.1875" stroke="white" stroke-opacity="0.2" stroke-width="2"/>
<rect x="713.062" y="595.688" width="66.1875" height="66.1875" stroke="white" stroke-opacity="0.2" stroke-width="2"/>
<rect x="514.5" y="661.875" width="66.1875" height="66.1875" stroke="white" stroke-opacity="0.2" stroke-width="2"/>
<rect x="580.688" y="661.875" width="66.1875" height="66.1875" stroke="white" stroke-opacity="0.2" stroke-width="2"/>
<rect x="514.5" y="728.062" width="66.1875" height="66.1875" stroke="white" stroke-opacity="0.2" stroke-width="2"/>
<rect x="580.688" y="728.062" width="66.1875" height="66.1875" stroke="white" stroke-opacity="0.2" stroke-width="2"/>
<rect x="646.875" y="661.875" width="66.1875" height="66.1875" stroke="white" stroke-opacity="0.2" stroke-width="2"/>
<rect x="713.062" y="661.875" width="66.1875" height="66.1875" stroke="white" stroke-opacity="0.2" stroke-width="2"/>
<rect x="646.875" y="728.062" width="66.1875" height="66.1875" stroke="white" stroke-opacity="0.2" stroke-width="2"/>
<rect x="713.062" y="728.062" width="66.1875" height="66.1875" stroke="white" stroke-opacity="0.2" stroke-width="2"/>
<rect x="779.25" y="529.5" width="66.1875" height="66.1875" stroke="white" stroke-opacity="0.2" stroke-width="2"/>
<rect x="845.438" y="529.5" width="66.1875" height="66.1875" stroke="white" stroke-opacity="0.2" stroke-width="2"/>
<rect x="779.25" y="595.688" width="66.1875" height="66.1875" stroke="white" stroke-opacity="0.2" stroke-width="2"/>
<rect x="845.438" y="595.688" width="66.1875" height="66.1875" stroke="white" stroke-opacity="0.2" stroke-width="2"/>
<rect x="911.625" y="529.5" width="66.1875" height="66.1875" stroke="white" stroke-opacity="0.2" stroke-width="2"/>
<path d="M977.812 529.5V528.5H976.812V529.5H977.812ZM977.812 595.688H976.812V596.688H977.812V595.688ZM977.812 529.5V530.5H1044V529.5V528.5H977.812V529.5ZM1044 595.688V594.688H977.812V595.688V596.688H1044V595.688ZM977.812 595.688H978.812V529.5H977.812H976.812V595.688H977.812Z" fill="white" fill-opacity="0.2"/>
<rect x="911.625" y="595.688" width="66.1875" height="66.1875" stroke="white" stroke-opacity="0.2" stroke-width="2"/>
<path d="M977.812 595.688V594.688H976.812V595.688H977.812ZM977.812 661.875H976.812V662.875H977.812V661.875ZM977.812 595.688V596.688H1044V595.688V594.688H977.812V595.688ZM1044 661.875V660.875H977.812V661.875V662.875H1044V661.875ZM977.812 661.875H978.812V595.688H977.812H976.812V661.875H977.812Z" fill="white" fill-opacity="0.2"/>
<rect x="779.25" y="661.875" width="66.1875" height="66.1875" stroke="white" stroke-opacity="0.2" stroke-width="2"/>
<rect x="845.438" y="661.875" width="66.1875" height="66.1875" stroke="white" stroke-opacity="0.2" stroke-width="2"/>
<rect x="779.25" y="728.062" width="66.1875" height="66.1875" stroke="white" stroke-opacity="0.2" stroke-width="2"/>
<rect x="845.438" y="728.062" width="66.1875" height="66.1875" stroke="white" stroke-opacity="0.2" stroke-width="2"/>
<rect x="911.625" y="661.875" width="66.1875" height="66.1875" stroke="white" stroke-opacity="0.2" stroke-width="2"/>
<path d="M977.812 661.875V660.875H976.812V661.875H977.812ZM977.812 728.062H976.812V729.062H977.812V728.062ZM977.812 661.875V662.875H1044V661.875V660.875H977.812V661.875ZM1044 728.062V727.062H977.812V728.062V729.062H1044V728.062ZM977.812 728.062H978.812V661.875H977.812H976.812V728.062H977.812Z" fill="white" fill-opacity="0.2"/>
<rect x="911.625" y="728.062" width="66.1875" height="66.1875" stroke="white" stroke-opacity="0.2" stroke-width="2"/>
<path d="M977.812 728.062V727.062H976.812V728.062H977.812ZM977.812 794.25H976.812V795.25H977.812V794.25ZM977.812 728.062V729.062H1044V728.062V727.062H977.812V728.062ZM1044 794.25V793.25H977.812V794.25V795.25H1044V794.25ZM977.812 794.25H978.812V728.062H977.812H976.812V794.25H977.812Z" fill="white" fill-opacity="0.2"/>
<rect x="514.5" y="794.25" width="66.1875" height="66.1875" stroke="white" stroke-opacity="0.2" stroke-width="2"/>
<rect x="580.688" y="794.25" width="66.1875" height="66.1875" stroke="white" stroke-opacity="0.2" stroke-width="2"/>
<rect x="646.875" y="794.25" width="66.1875" height="66.1875" stroke="white" stroke-opacity="0.2" stroke-width="2"/>
<rect x="713.062" y="794.25" width="66.1875" height="66.1875" stroke="white" stroke-opacity="0.2" stroke-width="2"/>
<rect x="779.25" y="794.25" width="66.1875" height="66.1875" stroke="white" stroke-opacity="0.2" stroke-width="2"/>
<rect x="845.438" y="794.25" width="66.1875" height="66.1875" stroke="white" stroke-opacity="0.2" stroke-width="2"/>
<rect x="911.625" y="794.25" width="66.1875" height="66.1875" stroke="white" stroke-opacity="0.2" stroke-width="2"/>
<path d="M977.812 794.25V793.25H976.812V794.25H977.812ZM977.812 860.438H976.812V861.438H977.812V860.438ZM977.812 794.25V795.25H1044V794.25V793.25H977.812V794.25ZM1044 860.438V859.438H977.812V860.438V861.438H1044V860.438ZM977.812 860.438H978.812V794.25H977.812H976.812V860.438H977.812Z" fill="white" fill-opacity="0.2"/>
</svg>
